<svg width="48" height="48" viewBox="0 0 48 48" fill="none" xmlns="http://www.w3.org/2000/svg">
<g id="Component 1">
<path id="Vector" d="M8 28.0001C7.62153 28.0014 7.25046 27.8952 6.92991 27.694C6.60935 27.4928 6.35247 27.2048 6.1891 26.8634C6.02573 26.522 5.96259 26.1413 6.007 25.7654C6.05141 25.3895 6.20156 25.034 6.44 24.7401L26.24 4.34008C26.3885 4.16864 26.5909 4.05279 26.814 4.01155C27.037 3.9703 27.2674 4.00611 27.4675 4.11309C27.6675 4.22007 27.8252 4.39188 27.9147 4.6003C28.0042 4.80872 28.0202 5.04138 27.96 5.26008L24.12 17.3001C24.0068 17.6031 23.9687 17.9291 24.0092 18.2501C24.0496 18.5711 24.1673 18.8774 24.3522 19.1429C24.537 19.4084 24.7835 19.6251 25.0706 19.7744C25.3576 19.9237 25.6765 20.0011 26 20.0001H40C40.3785 19.9988 40.7495 20.1049 41.0701 20.3061C41.3906 20.5073 41.6475 20.7954 41.8109 21.1368C41.9743 21.4782 42.0374 21.8589 41.993 22.2348C41.9486 22.6106 41.7984 22.9662 41.56 23.2601L21.76 43.6601C21.6115 43.8315 21.4091 43.9474 21.186 43.9886C20.963 44.0299 20.7326 43.9941 20.5325 43.8871C20.3325 43.7801 20.1748 43.6083 20.0853 43.3999C19.9958 43.1914 19.9798 42.9588 20.04 42.7401L23.88 30.7001C23.9932 30.397 24.0313 30.071 23.9908 29.7501C23.9504 29.4291 23.8327 29.1227 23.6478 28.8572C23.463 28.5917 23.2165 28.3751 22.9294 28.2258C22.6424 28.0765 22.3235 27.999 22 28.0001H8Z" stroke="#171717" stroke-width="4" stroke-linecap="round" stroke-linejoin="round"/>
</g>
</svg>
