<svg width="41" height="40" viewBox="0 0 41 40" fill="none" xmlns="http://www.w3.org/2000/svg">
<g id="Component 1">
<path id="Vector" d="M18.6633 33.3333C15.7368 33.3421 12.9138 32.2508 10.7542 30.2756C8.59464 28.3005 7.25628 25.5858 7.00456 22.6701C6.75284 19.7544 7.60615 16.8505 9.39525 14.5345C11.1844 12.2185 13.7786 10.6594 16.6633 10.1666C26.1633 8.33325 28.6633 7.46659 31.9967 3.33325C33.6633 6.66659 35.33 10.2999 35.33 16.6666C35.33 25.8333 27.3633 33.3333 18.6633 33.3333Z" stroke="#171717" stroke-width="3.33333" stroke-linecap="round" stroke-linejoin="round"/>
<path id="Vector_2" d="M3.66336 35C3.66336 30 6.74669 26.0667 12.13 25C16.1634 24.2 20.33 21.6667 21.9967 20" stroke="#171717" stroke-width="3.33333" stroke-linecap="round" stroke-linejoin="round"/>
</g>
</svg>
