<svg width="41" height="40" viewBox="0 0 41 40" fill="none" xmlns="http://www.w3.org/2000/svg">
<g id="Component 1">
<path id="Vector" d="M33.9933 21.6666C33.9933 29.9999 28.16 34.1666 21.2267 36.5833C20.8636 36.7063 20.4692 36.7004 20.11 36.5666C13.16 34.1666 7.32667 29.9999 7.32667 21.6666V9.99994C7.32667 9.55791 7.50226 9.13399 7.81482 8.82142C8.12738 8.50886 8.55131 8.33327 8.99333 8.33327C12.3267 8.33327 16.4933 6.33327 19.3933 3.79994C19.7464 3.49827 20.1956 3.33252 20.66 3.33252C21.1244 3.33252 21.5736 3.49827 21.9267 3.79994C24.8433 6.34994 28.9933 8.33327 32.3267 8.33327C32.7687 8.33327 33.1926 8.50886 33.5052 8.82142C33.8177 9.13399 33.9933 9.55791 33.9933 9.99994V21.6666Z" stroke="#171717" stroke-width="3.33333" stroke-linecap="round" stroke-linejoin="round"/>
</g>
</svg>
