<svg width="40" height="40" viewBox="0 0 40 40" fill="none" xmlns="http://www.w3.org/2000/svg">
<g id="Component 1">
<path id="Vector" d="M10 36.6666V6.66659C10 5.78253 10.3512 4.93468 10.9763 4.30956C11.6014 3.68444 12.4493 3.33325 13.3333 3.33325H26.6667C27.5507 3.33325 28.3986 3.68444 29.0237 4.30956C29.6488 4.93468 30 5.78253 30 6.66659V36.6666H10Z" stroke="#171717" stroke-width="3.33333" stroke-linecap="round" stroke-linejoin="round"/>
<path id="Vector_2" d="M10 20H6.66668C5.78262 20 4.93478 20.3512 4.30965 20.9763C3.68453 21.6014 3.33334 22.4493 3.33334 23.3333V33.3333C3.33334 34.2174 3.68453 35.0652 4.30965 35.6904C4.93478 36.3155 5.78262 36.6667 6.66668 36.6667H10" stroke="#171717" stroke-width="3.33333" stroke-linecap="round" stroke-linejoin="round"/>
<path id="Vector_3" d="M30 15H33.3333C34.2174 15 35.0652 15.3512 35.6904 15.9763C36.3155 16.6014 36.6667 17.4493 36.6667 18.3333V33.3333C36.6667 34.2174 36.3155 35.0652 35.6904 35.6904C35.0652 36.3155 34.2174 36.6667 33.3333 36.6667H30" stroke="#171717" stroke-width="3.33333" stroke-linecap="round" stroke-linejoin="round"/>
<path id="Vector_4" d="M16.6667 10H23.3333" stroke="#171717" stroke-width="3.33333" stroke-linecap="round" stroke-linejoin="round"/>
<path id="Vector_5" d="M16.6667 16.6667H23.3333" stroke="#171717" stroke-width="3.33333" stroke-linecap="round" stroke-linejoin="round"/>
<path id="Vector_6" d="M16.6667 23.3333H23.3333" stroke="#171717" stroke-width="3.33333" stroke-linecap="round" stroke-linejoin="round"/>
<path id="Vector_7" d="M16.6667 30H23.3333" stroke="#171717" stroke-width="3.33333" stroke-linecap="round" stroke-linejoin="round"/>
</g>
</svg>
