<svg width="41" height="40" viewBox="0 0 41 40" fill="none" xmlns="http://www.w3.org/2000/svg">
<g id="Component 1">
<path id="Vector" d="M3.99334 33.3333C3.99334 34.2173 4.34453 35.0652 4.96965 35.6903C5.59477 36.3154 6.44262 36.6666 7.32667 36.6666H33.9933C34.8774 36.6666 35.7252 36.3154 36.3504 35.6903C36.9755 35.0652 37.3267 34.2173 37.3267 33.3333V13.3333L25.66 21.6666V13.3333L13.9933 21.6666V6.66659C13.9933 5.78253 13.6421 4.93468 13.017 4.30956C12.3919 3.68444 11.5441 3.33325 10.66 3.33325H7.32667C6.44262 3.33325 5.59477 3.68444 4.96965 4.30956C4.34453 4.93468 3.99334 5.78253 3.99334 6.66659V33.3333Z" stroke="#171717" stroke-width="3.33333" stroke-linecap="round" stroke-linejoin="round"/>
<path id="Vector_2" d="M28.9933 30H30.66" stroke="#171717" stroke-width="3.33333" stroke-linecap="round" stroke-linejoin="round"/>
<path id="Vector_3" d="M20.66 30H22.3267" stroke="#171717" stroke-width="3.33333" stroke-linecap="round" stroke-linejoin="round"/>
<path id="Vector_4" d="M12.3267 30H13.9933" stroke="#171717" stroke-width="3.33333" stroke-linecap="round" stroke-linejoin="round"/>
</g>
</svg>
