<svg width="41" height="40" viewBox="0 0 41 40" fill="none" xmlns="http://www.w3.org/2000/svg">
<g id="Component 1">
<path id="Vector" d="M24.4967 6.66675H16.1634L11.9967 11.6667H6.99669C6.11264 11.6667 5.26479 12.0179 4.63967 12.6431C4.01455 13.2682 3.66336 14.116 3.66336 15.0001V30.0001C3.66336 30.8841 4.01455 31.732 4.63967 32.3571C5.26479 32.9822 6.11264 33.3334 6.99669 33.3334H33.6634C34.5474 33.3334 35.3953 32.9822 36.0204 32.3571C36.6455 31.732 36.9967 30.8841 36.9967 30.0001V15.0001C36.9967 14.116 36.6455 13.2682 36.0204 12.6431C35.3953 12.0179 34.5474 11.6667 33.6634 11.6667H28.6634L24.4967 6.66675Z" stroke="#171717" stroke-width="3.33333" stroke-linecap="round" stroke-linejoin="round"/>
<path id="Vector_2" d="M20.33 26.6667C23.0914 26.6667 25.33 24.4282 25.33 21.6667C25.33 18.9053 23.0914 16.6667 20.33 16.6667C17.5686 16.6667 15.33 18.9053 15.33 21.6667C15.33 24.4282 17.5686 26.6667 20.33 26.6667Z" stroke="#171717" stroke-width="3.33333" stroke-linecap="round" stroke-linejoin="round"/>
</g>
</svg>
