<svg width="48" height="48" viewBox="0 0 48 48" fill="none" xmlns="http://www.w3.org/2000/svg">
<g id="Component 1">
<path id="Vector" d="M23.99 9.99998C23.9924 9.20004 23.8347 8.40771 23.5264 7.66958C23.218 6.93145 22.7652 6.26243 22.1945 5.70187C21.6239 5.14131 20.9468 4.70052 20.2033 4.40544C19.4598 4.11036 18.6648 3.96693 17.865 3.9836C17.0652 4.00027 16.2769 4.1767 15.5463 4.50251C14.8157 4.82832 14.1576 5.29693 13.6108 5.88079C13.064 6.46464 12.6394 7.15195 12.3621 7.90228C12.0848 8.65262 11.9603 9.45083 11.996 10.25C10.8204 10.5523 9.72901 11.1181 8.80446 11.9046C7.87992 12.6911 7.14648 13.6777 6.65969 14.7897C6.1729 15.9016 5.94552 17.1098 5.99478 18.3226C6.04404 19.5354 6.36864 20.7212 6.944 21.79C5.93236 22.6118 5.13685 23.6684 4.62668 24.8678C4.11651 26.0673 3.90712 27.3732 4.01673 28.672C4.12634 29.9707 4.55164 31.2231 5.25561 32.32C5.95959 33.417 6.92093 34.3253 8.056 34.966C7.91583 36.0505 7.99948 37.1521 8.30178 38.203C8.60407 39.2539 9.11859 40.2317 9.81357 41.0759C10.5085 41.9201 11.3692 42.6129 12.3424 43.1115C13.3157 43.6101 14.3808 43.9038 15.472 43.9746C16.5632 44.0455 17.6573 43.8918 18.6868 43.5232C19.7163 43.1546 20.6593 42.5788 21.4575 41.8315C22.2558 41.0842 22.8924 40.1811 23.3279 39.1781C23.7635 38.1751 23.9888 37.0935 23.99 36V9.99998Z" stroke="#171717" stroke-width="4" stroke-linecap="round" stroke-linejoin="round"/>
<path id="Vector_2" d="M23.99 9.99998C23.9876 9.20004 24.1453 8.40771 24.4536 7.66958C24.7619 6.93145 25.2148 6.26243 25.7855 5.70187C26.3561 5.14131 27.0332 4.70052 27.7767 4.40544C28.5202 4.11036 29.3152 3.96693 30.115 3.9836C30.9148 4.00027 31.7031 4.1767 32.4337 4.50251C33.1643 4.82832 33.8224 5.29693 34.3692 5.88079C34.916 6.46464 35.3406 7.15195 35.6179 7.90228C35.8952 8.65262 36.0197 9.45083 35.984 10.25C37.1596 10.5523 38.251 11.1181 39.1755 11.9046C40.1001 12.6911 40.8335 13.6777 41.3203 14.7897C41.8071 15.9016 42.0345 17.1098 41.9852 18.3226C41.936 19.5354 41.6114 20.7212 41.036 21.79C42.0476 22.6118 42.8431 23.6684 43.3533 24.8678C43.8635 26.0673 44.0729 27.3732 43.9633 28.672C43.8537 29.9707 43.4284 31.2231 42.7244 32.32C42.0204 33.417 41.0591 34.3253 39.924 34.966C40.0642 36.0505 39.9805 37.1521 39.6782 38.203C39.3759 39.2539 38.8614 40.2317 38.1664 41.0759C37.4714 41.9201 36.6108 42.6129 35.6376 43.1115C34.6643 43.6101 33.5992 43.9038 32.508 43.9746C31.4168 44.0455 30.3227 43.8918 29.2932 43.5232C28.2637 43.1546 27.3207 42.5788 26.5225 41.8315C25.7242 41.0842 25.0876 40.1811 24.6521 39.1781C24.2165 38.1751 23.9912 37.0935 23.99 36V9.99998Z" stroke="#171717" stroke-width="4" stroke-linecap="round" stroke-linejoin="round"/>
<path id="Vector_3" d="M29.99 26C28.3109 25.4093 26.8446 24.334 25.7766 22.91C24.7087 21.486 24.0869 19.7773 23.99 18C23.8931 19.7773 23.2713 21.486 22.2033 22.91C21.1354 24.334 19.6691 25.4093 17.99 26" stroke="#171717" stroke-width="4" stroke-linecap="round" stroke-linejoin="round"/>
<path id="Vector_4" d="M35.188 13C35.672 12.1612 35.9458 11.2176 35.986 10.25" stroke="#171717" stroke-width="4" stroke-linecap="round" stroke-linejoin="round"/>
<path id="Vector_5" d="M11.996 10.25C12.0355 11.2175 12.3087 12.161 12.792 13" stroke="#171717" stroke-width="4" stroke-linecap="round" stroke-linejoin="round"/>
<path id="Vector_6" d="M6.944 21.792C7.30988 21.494 7.70141 21.229 8.114 21" stroke="#171717" stroke-width="4" stroke-linecap="round" stroke-linejoin="round"/>
<path id="Vector_7" d="M39.866 21C40.2786 21.229 40.6701 21.494 41.036 21.792" stroke="#171717" stroke-width="4" stroke-linecap="round" stroke-linejoin="round"/>
<path id="Vector_8" d="M11.99 36C10.6117 36.0007 9.25653 35.6452 8.056 34.968" stroke="#171717" stroke-width="4" stroke-linecap="round" stroke-linejoin="round"/>
<path id="Vector_9" d="M39.924 34.968C38.7235 35.6452 37.3683 36.0007 35.99 36" stroke="#171717" stroke-width="4" stroke-linecap="round" stroke-linejoin="round"/>
</g>
</svg>
