<svg width="48" height="48" viewBox="0 0 48 48" fill="none" xmlns="http://www.w3.org/2000/svg">
<path d="M21.649 32.7581C19.5533 33.8171 17.1959 34.2469 14.8613 33.9957C12.5267 33.7445 10.3147 32.8229 8.49227 31.3423C6.66988 29.8616 5.31499 27.8851 4.59113 25.6514C3.86728 23.4177 3.80541 21.0222 4.41299 18.7541L15.237 21.6541C14.1779 19.5584 13.7481 17.2009 13.9993 14.8663C14.2505 12.5317 15.1721 10.3197 16.6528 8.49734C18.1334 6.67494 20.1099 5.32005 22.3437 4.5962C24.5774 3.87235 26.9729 3.81048 29.241 4.41805L26.341 15.2421C28.4367 14.183 30.7941 13.7532 33.1287 14.0044C35.4633 14.2556 37.6753 15.1772 39.4977 16.6578C41.3201 18.1385 42.675 20.115 43.3988 22.3487C44.1227 24.5824 44.1846 26.9779 43.577 29.2461L32.753 26.3461C33.812 28.4417 34.2419 30.7992 33.9907 33.1338C33.7394 35.4684 32.8179 37.6804 31.3372 39.5028C29.8565 41.3252 27.88 42.6801 25.6463 43.4039C23.4126 44.1278 21.0171 44.1896 18.749 43.5821L21.649 32.7581Z" stroke="#171717" stroke-width="4" stroke-linecap="round" stroke-linejoin="round"/>
<path d="M23.995 24V24.02" stroke="#171717" stroke-width="4" stroke-linecap="round" stroke-linejoin="round"/>
</svg>
