<svg width="48" height="48" viewBox="0 0 48 48" fill="none" xmlns="http://www.w3.org/2000/svg">
<g id="Component 1">
<path id="Vector" d="M17.99 6H7.98999C6.88542 6 5.98999 6.89543 5.98999 8V18C5.98999 19.1046 6.88542 20 7.98999 20H17.99C19.0946 20 19.99 19.1046 19.99 18V8C19.99 6.89543 19.0946 6 17.99 6Z" stroke="#171717" stroke-width="4" stroke-linecap="round" stroke-linejoin="round"/>
<path id="Vector_2" d="M39.99 6H29.99C28.8854 6 27.99 6.89543 27.99 8V18C27.99 19.1046 28.8854 20 29.99 20H39.99C41.0946 20 41.99 19.1046 41.99 18V8C41.99 6.89543 41.0946 6 39.99 6Z" stroke="#171717" stroke-width="4" stroke-linecap="round" stroke-linejoin="round"/>
<path id="Vector_3" d="M39.99 28H29.99C28.8854 28 27.99 28.8954 27.99 30V40C27.99 41.1046 28.8854 42 29.99 42H39.99C41.0946 42 41.99 41.1046 41.99 40V30C41.99 28.8954 41.0946 28 39.99 28Z" stroke="#171717" stroke-width="4" stroke-linecap="round" stroke-linejoin="round"/>
<path id="Vector_4" d="M17.99 28H7.98999C6.88542 28 5.98999 28.8954 5.98999 30V40C5.98999 41.1046 6.88542 42 7.98999 42H17.99C19.0946 42 19.99 41.1046 19.99 40V30C19.99 28.8954 19.0946 28 17.99 28Z" stroke="#171717" stroke-width="4" stroke-linecap="round" stroke-linejoin="round"/>
</g>
</svg>
